<svg data-v-0dd9719b="" version="1.0" xmlns="http://www.w3.org/2000/svg"
     width="100%" height="100%" viewBox="0 0 340.000000 250.000000" preserveAspectRatio="xMidYMid meet"
     color-interpolation-filters="sRGB" style="margin: auto;">

    <g fill="#333" class="icon-text-wrapper icon-svg-group iconsvg"
       transform="translate(48.225006103515625,94.99159812927246)">
        <g class="iconsvg-imagesvg" transform="matrix(1,0,0,1,0,0)" opacity="1">
            <g>
                <rect fill="#333" fill-opacity="0" stroke-width="2" x="0" y="0" width="60" height="60.01680470531748"
                      class="image-rect"/>
                <svg x="0" y="0" width="60" height="60.01680470531748"
                     class="image-svg-svg primary" style="overflow: visible;">
                    <svg xmlns="http://www.w3.org/2000/svg" viewBox="0 0 108 108.03010559082031">
                        <path d="M108 28.16c0 8.23-.08 16.46 0 24.69 0 2.52-.62 3.48-3.33 3.46q-24.86-.16-49.72 0c-2.47 0-3.17-.84-3.16-3.23q.12-24.89 0-49.77C51.76.55 52.87 0 55.32 0Q80 .13 104.65 0c2.73 0 3.35 1 3.35 3.48-.11 8.22 0 16.45 0 24.68z"
                              fill="#ef1d0b"/>
                        <path d="M20.81 14.67c5.83 0 11.66.09 17.48 0 2.29-.05 3.28.44 3.25 3q-.2 17.9 0 35.8c0 2.36-.86 2.86-3 2.85q-17.88-.12-35.77 0c-2 0-2.78-.45-2.76-2.62Q.14 35.39 0 17.1c0-2 .64-2.49 2.52-2.46 6.1.09 12.19.03 18.29.03zM51.81 86.82c0-5.71.06-11.42 0-17.13 0-2 .24-3.15 2.73-3.13q18.12.16 36.23 0c2.24 0 2.59.9 2.58 2.84q-.11 17.93 0 35.86c0 2.06-.61 2.78-2.7 2.77q-18.12-.11-36.23 0c-2.21 0-2.63-.94-2.6-2.89.05-6.14-.01-12.21-.01-18.32z"
                              fill="#060606"/>
                        <path d="M25.73 97.75c-4.11 0-8.23-.08-12.34 0-2.16.06-3.09-.56-3.07-2.9.1-8.5.12-17 0-25.49 0-2.43 1-2.86 3.1-2.85 8.36.07 16.72.12 25.07 0 2.59 0 3.08 1 3.05 3.27-.12 8.23-.15 16.47 0 24.7.05 2.72-.95 3.41-3.47 3.3-4.07-.15-8.22-.03-12.34-.03z"
                              fill="#ef1d0b"/>
                    </svg>
                </svg> <!---->
            </g>
        </g>
        <g transform="translate(67,14.28840160369873)">
            <g fill-rule="" class="tp-name iconsvg-namesvg" opacity="1"
               transform="matrix(1,0,0,1,0,0)">
                <g transform="scale(1)">
                    <g>
                        <path d="M17.1-6.82L17.1-6.82Q17.1-4.73 16.05-3.11 14.99-1.49 12.99-0.59 10.99 0.31 8.31 0.31L8.31 0.31Q6.07 0.31 4.54-0.01 3.02-0.32 1.38-1.11L1.38-1.11 1.38-6.51Q3.12-5.62 4.99-5.12 6.86-4.62 8.43-4.62L8.43-4.62Q9.78-4.62 10.41-5.09 11.04-5.56 11.04-6.3L11.04-6.3Q11.04-6.76 10.79-7.1 10.53-7.45 9.97-7.8 9.41-8.15 6.99-9.24L6.99-9.24Q4.79-10.24 3.69-11.18 2.59-12.11 2.07-13.33 1.54-14.54 1.54-16.2L1.54-16.2Q1.54-19.3 3.79-21.04 6.05-22.77 10-22.77L10-22.77Q13.48-22.77 17.1-21.16L17.1-21.16 15.25-16.48Q12.1-17.92 9.81-17.92L9.81-17.92Q8.63-17.92 8.09-17.5 7.55-17.09 7.55-16.48L7.55-16.48Q7.55-15.82 8.24-15.29 8.92-14.77 11.95-13.39L11.95-13.39Q14.85-12.08 15.98-10.59 17.1-9.09 17.1-6.82ZM24.97-0.25L18.12-17.4 24.44-17.4 27.39-7.42Q27.61-6.63 27.68-5.53L27.68-5.53 27.81-5.53Q27.93-6.59 28.18-7.39L28.18-7.39 31.2-17.4 37.33-17.4 30.45 1.11Q29.13 4.64 27.2 6.1 25.27 7.55 22.17 7.55L22.17 7.55Q20.97 7.55 19.72 7.29L19.72 7.29 19.72 2.58Q20.53 2.76 21.57 2.76L21.57 2.76Q22.37 2.76 22.97 2.46 23.57 2.15 24.01 1.59 24.46 1.03 24.97-0.25L24.97-0.25ZM56.38 0L50.38 0 50.38-9.49Q50.38-11.22 49.88-12.11 49.38-12.99 48.27-12.99L48.27-12.99Q46.75-12.99 46.08-11.78 45.4-10.56 45.4-7.62L45.4-7.62 45.4 0 39.4 0 39.4-17.4 43.93-17.4 44.68-15.25 45.03-15.25Q45.8-16.48 47.16-17.09 48.52-17.7 50.29-17.7L50.29-17.7Q53.17-17.7 54.78-16.03 56.38-14.36 56.38-11.32L56.38-11.32 56.38 0ZM68.39 0.31L68.39 0.31Q64.12 0.31 61.92-2 59.71-4.3 59.71-8.61L59.71-8.61Q59.71-12.94 62.09-15.32 64.47-17.7 68.86-17.7L68.86-17.7Q71.89-17.7 74.56-16.38L74.56-16.38 72.8-11.95Q71.71-12.42 70.78-12.71 69.86-12.99 68.86-12.99L68.86-12.99Q67.41-12.99 66.61-11.85 65.81-10.72 65.81-8.64L65.81-8.64Q65.81-4.47 68.9-4.47L68.9-4.47Q71.54-4.47 73.96-6L73.96-6 73.96-1.23Q71.64 0.31 68.39 0.31ZM95.93-17.8L95.93-17.8Q93.77-17.8 92.56-16.02 91.34-14.25 91.34-11.13L91.34-11.13Q91.34-4.65 96.27-4.65L96.27-4.65Q97.76-4.65 99.16-5.07 100.56-5.48 101.97-6.07L101.97-6.07 101.97-0.94Q99.16 0.31 95.61 0.31L95.61 0.31Q90.53 0.31 87.82-2.64 85.11-5.59 85.11-11.16L85.11-11.16Q85.11-14.65 86.42-17.29 87.74-19.93 90.2-21.35 92.66-22.77 96-22.77L96-22.77Q99.63-22.77 102.95-21.19L102.95-21.19 101.09-16.41Q99.85-17 98.61-17.4 97.36-17.8 95.93-17.8ZM122.97 0L116.94 0 116.94-9.49Q116.94-12.99 114.87-12.99L114.87-12.99Q113.39-12.99 112.69-11.75 112-10.52 112-7.65L112-7.65 112 0 105.99 0 105.99-23.89 112-23.89 112-20.5Q112-18.2 111.75-15.25L111.75-15.25 112.03-15.25Q112.89-16.6 114.07-17.15 115.25-17.7 116.82-17.7L116.82-17.7Q119.73-17.7 121.35-16.02 122.97-14.34 122.97-11.32L122.97-11.32 122.97 0ZM143.67-8.74L143.67-8.74Q143.67-4.47 141.38-2.08 139.08 0.31 134.95 0.31L134.95 0.31Q130.99 0.31 128.65-2.13 126.31-4.58 126.31-8.74L126.31-8.74Q126.31-12.99 128.6-15.35 130.9-17.7 135.04-17.7L135.04-17.7Q137.61-17.7 139.57-16.61 141.54-15.52 142.6-13.49 143.67-11.45 143.67-8.74ZM132.4-8.74L132.4-8.74Q132.4-6.49 133-5.32 133.6-4.15 135.01-4.15L135.01-4.15Q136.41-4.15 136.98-5.32 137.56-6.49 137.56-8.74L137.56-8.74Q137.56-10.96 136.98-12.1 136.39-13.24 134.98-13.24L134.98-13.24Q133.6-13.24 133-12.11 132.4-10.98 132.4-8.74ZM157.6-17.7L157.6-17.7Q158.38-17.7 159.09-17.58L159.09-17.58 159.43-17.52 158.89-11.85Q158.15-12.04 156.85-12.04L156.85-12.04Q154.88-12.04 153.99-11.14 153.1-10.24 153.1-8.55L153.1-8.55 153.1 0 147.1 0 147.1-17.4 151.56-17.4 152.5-14.62 152.79-14.62Q153.54-16 154.89-16.85 156.23-17.7 157.6-17.7ZM167.26 0.31L167.26 0.31Q165.4 0.31 164.01-0.75 162.62-1.81 161.86-3.87 161.1-5.93 161.1-8.68L161.1-8.68Q161.1-12.91 162.8-15.31 164.51-17.7 167.49-17.7L167.49-17.7Q168.94-17.7 170.04-17.12 171.14-16.54 172.05-15.15L172.05-15.15 172.17-15.15Q171.88-17.2 171.88-19.24L171.88-19.24 171.88-23.89 177.93-23.89 177.93 0 173.4 0 172.11-2.2 171.88-2.2Q170.33 0.31 167.26 0.31ZM169.71-4.44L169.71-4.44Q171.16-4.44 171.75-5.34 172.34-6.25 172.38-8.14L172.38-8.14 172.38-8.61Q172.38-10.92 171.72-11.89 171.06-12.87 169.65-12.87L169.65-12.87Q168.47-12.87 167.82-11.75 167.16-10.64 167.16-8.58L167.16-8.58Q167.16-6.56 167.82-5.5 168.48-4.44 169.71-4.44Z"
                              transform="translate(-1.3799999952316284, 23.889999389648438)"/>
                    </g> <!----> <!----> <!----> <!----> <!----> <!----> <!---->
                </g>
            </g> <!---->
        </g>
    </g>
    <defs></defs>
</svg>